<?xml version="1.0" encoding="utf-8"?>
<!-- Generator: Adobe Illustrator 23.0.0, SVG Export Plug-In . SVG Version: 6.00 Build 0)  -->
<svg version="1.1" id="Calque_1" xmlns="http://www.w3.org/2000/svg" xmlns:xlink="http://www.w3.org/1999/xlink" x="0px" y="0px"
	 viewBox="0 0 243.3 259.9" style="enable-background:new 0 0 243.3 259.9;" xml:space="preserve">
<style type="text/css">
	.st0{fill:#4B4E4E;}
</style>
<path class="st0" d="M243.3,95.5c-0.1-16.4-5.7-32.4-16.1-45.1c3.5-14.6,2.4-29.9-3.1-43.9c-1.1-2.7-3.3-4.7-6.1-5.6
	c-3.9-1.3-18.8-3.9-49,15.7v0c-13-3.4-26.4-5.1-39.9-4.8c-13.5-0.2-26.9,1.4-39.9,4.8C58.2-3.4,42-0.2,38.8,0.8
	c-2.8,0.9-5,3-6.1,5.7c-5.6,13.9-6.7,29.2-3.2,43.8C18.8,63,13.1,79.2,13.4,95.8c0,61.9,35.4,80.6,67.9,87.3
	c-1.7,4.1-2.8,8.3-3.4,12.7c-0.1,0.5-0.1,0.9,0,1.4v17.1c-29.6,2.5-35.9-14.8-36.5-16.8v0c-0.1-0.5-0.3-0.9-0.5-1.3
	c-5.7-11.6-15.8-20.6-28-24.9c-5.1-1.7-10.7,1.1-12.4,6.2c-1.7,5.1,1.1,10.7,6.2,12.4c6.8,2.4,12.4,7.3,15.9,13.6
	c3.9,12.7,19.9,32.8,55.2,30.6v16.1c0,5.4,4.4,9.8,9.8,9.8c5.4,0,9.8-4.4,9.8-9.8v-52.2c0.7-5.7,3.2-11,7.1-15.3
	c2.8-2.6,3.8-6.6,2.6-10.2c-1.2-3.6-4.4-6.2-8.2-6.6c-34.2-4-65.7-15.2-65.7-70.4h0c-0.5-13.5,4.7-26.5,14.3-36
	c2.6-2.8,3.5-6.8,2.2-10.4c-3.3-9.6-3.5-20-0.6-29.7c12,2.7,23.3,8,33.1,15.5c2.5,1.7,5.7,2.1,8.6,1.2c12.4-3.8,25.4-5.5,38.4-5.2
	c13-0.3,25.9,1.4,38.4,5.2c2.9,0.9,6.1,0.5,8.6-1.2c9.4-7.2,20.2-12.5,31.7-15.4c2.9,9.8,2.6,20.3-0.7,30c-1.1,3.3-0.4,6.9,1.9,9.5
	c9.3,9.9,14.5,22.9,14.7,36.5c0,55-33.2,66.5-65.7,70.4c-4,0.4-7.3,3.3-8.3,7.2c-1,3.9,0.4,8,3.6,10.4c3.5,2.6,7.5,10,7.5,22.4V250
	c0,5.4,4.4,9.8,9.8,9.8c5.4,0,9.8-4.4,9.8-9.8v-44.4c0.1-7.8-1.3-15.5-4.2-22.8C202.6,177.3,243.3,160,243.3,95.5L243.3,95.5z"/>
</svg>
